<svg width="23" height="22" viewBox="0 0 23 22" fill="none" xmlns="http://www.w3.org/2000/svg">
<path d="M17.9181 15.4758C19.2224 13.8324 20.005 11.7717 20.005 9.52834C20.031 4.28516 15.753 0.00714111 10.5098 0.00714111C5.26666 0.00714111 0.988647 4.28516 0.988647 9.52834C0.988647 14.7715 5.26666 19.0495 10.5098 19.0495C12.7532 19.0495 14.8139 18.267 16.4573 16.9627L21.1266 21.632C21.3353 21.8146 21.5962 21.9189 21.857 21.9189C22.1179 21.9189 22.3787 21.8146 22.5874 21.6059C23.0048 21.1885 23.0048 20.5364 22.5874 20.119L17.9181 15.4758ZM10.5098 16.9627C6.41443 16.9627 3.07549 13.6238 3.07549 9.52834C3.07549 5.43292 6.41443 2.09398 10.5098 2.09398C14.6053 2.09398 17.9442 5.43292 17.9442 9.52834C17.9442 13.6238 14.6053 16.9627 10.5098 16.9627Z" fill="black"/>
</svg>
