<svg width="32" height="33" viewBox="0 0 32 33" fill="none" xmlns="http://www.w3.org/2000/svg">
<path d="M16 2.35233C13.5 2.35233 11.5 4.14733 11.5 6.35233V9.35233H7.00004C6.75205 9.35096 6.5124 9.44178 6.32761 9.60717C6.14282 9.77255 6.02607 10.0007 6.00004 10.2473L4.00004 29.2473C3.98527 29.3872 4.00017 29.5286 4.04376 29.6623C4.08736 29.796 4.15868 29.9191 4.25305 30.0233C4.34742 30.1276 4.46273 30.2108 4.59145 30.2675C4.72017 30.3242 4.85939 30.3531 5.00004 30.3523H27C27.1407 30.3531 27.2799 30.3242 27.4086 30.2675C27.5373 30.2108 27.6527 30.1276 27.747 30.0233C27.8414 29.9191 27.9127 29.796 27.9563 29.6623C27.9999 29.5286 28.0148 29.3872 28 29.2473L26 10.2473C25.974 10.0007 25.8573 9.77255 25.6725 9.60717C25.4877 9.44178 25.248 9.35096 25 9.35233H20.5V6.35233C20.5 4.14733 18.5 2.35233 16 2.35233ZM13.5 6.35233C13.5 5.24733 14.62 4.35233 16 4.35233C17.38 4.35233 18.5 5.24733 18.5 6.35233V9.35233H13.5V6.35233ZM24.1 11.3523L25.89 28.3523H6.11004L7.90004 11.3523H11.5V13.3523C11.5 13.6175 11.6054 13.8719 11.7929 14.0594C11.9805 14.247 12.2348 14.3523 12.5 14.3523C12.7653 14.3523 13.0196 14.247 13.2071 14.0594C13.3947 13.8719 13.5 13.6175 13.5 13.3523V11.3523H18.5V13.3523C18.5 13.6175 18.6054 13.8719 18.7929 14.0594C18.9805 14.247 19.2348 14.3523 19.5 14.3523C19.7653 14.3523 20.0196 14.247 20.2071 14.0594C20.3947 13.8719 20.5 13.6175 20.5 13.3523V11.3523H24.1Z" fill="black"/>
</svg>
